<svg class="h-28 w-28 sm:h-44 sm:w-44" xmlns="http://www.w3.org/2000/svg" viewBox="0 0 633 633" fill="none">
        <g class="dark:hidden">
          <path
            d="M0 74.9605C0 33.561 33.561 0 74.9605 0H558.039C599.439 0 633 33.561 633 74.9605V558.039C633 599.439 599.439 633 558.039 633H74.9605C33.561 633 0 599.439 0 558.039V74.9605Z"
            fill="#3178C6"></path>
          <path
            d="M133.263 299.842H204.629L366.474 566.368H261.441L133.263 299.842ZM333.158 299.842H423.962L204.629 566.368H133.263L333.158 299.842Z"
            fill="white">
          </path>
          <path d="M366.474 299.842H566.368V348.724H366.474V299.842ZM423.962 348.724V566.368H508.741V348.724H423.962Z"
            fill="white"></path>
        </g>
        <g class="animate-logo-light hidden dark:block">
          <path
            d="M0 74.9605C0 33.561 33.561 0 74.9605 0H558.039C599.439 0 633 33.561 633 74.9605V558.039C633 599.439 599.439 633 558.039 633H74.9605C33.561 633 0 599.439 0 558.039V74.9605Z"
            fill="#3178C6"></path>
          <path
            d="M133.263 299.842H204.629L366.474 566.368H261.441L133.263 299.842ZM333.158 299.842H423.962L204.629 566.368H133.263L333.158 299.842Z"
            fill="white">
          </path>
          <path d="M366.474 299.842H566.368V348.724H366.474V299.842ZM423.962 348.724V566.368H508.741V348.724H423.962Z"
            fill="white"></path>
        </g>
        <g class="animate-3d-logo hidden dark:block" filter="url(#filter0_ii_1050_32)">
          <path
            d="M0 74.9605C0 33.561 33.561 0 74.9605 0H558.039C599.439 0 633 33.561 633 74.9605V558.039C633 599.439 599.439 633 558.039 633H74.9605C33.561 633 0 599.439 0 558.039V74.9605Z"
            fill="#3178C6"></path>
          <path
            d="M133.263 299.842H204.629L366.474 566.368H261.441L133.263 299.842ZM333.158 299.842H423.962L204.629 566.368H133.263L333.158 299.842Z"
            fill="white">
          </path>
          <path d="M366.474 299.842H566.368V348.724H366.474V299.842ZM423.962 348.724V566.368H508.741V348.724H423.962Z"
            fill="white"></path>
        </g>
      </svg>